<?xml version="1.0" encoding="UTF-8"?>
<svg xmlns="http://www.w3.org/2000/svg" xmlns:xlink="http://www.w3.org/1999/xlink" width="90px"
    height="150px" viewBox="0 0 90 150" version="1.1">
    <g id="surface1">
        <path
            style=" stroke:none;fill-rule:nonzero;fill:rgb(21.176471%,4.705882%,22.745098%);fill-opacity:1;"
            d="M 4.015625 114.167969 L 6.558594 114.167969 C 10.890625 114.167969 14.046875 111.574219 14.046875 107.167969 C 14.046875 102.804688 10.84375 100.257812 6.558594 100.257812 L 0 100.257812 L 0 120.914062 L 4.015625 120.914062 Z M 4.015625 104.066406 L 6.363281 104.066406 C 8.40625 104.066406 9.882812 105.128906 9.882812 107.167969 C 9.882812 109.207031 8.40625 110.316406 6.363281 110.316406 L 4.015625 110.316406 Z M 4.015625 104.066406 " />
        <path
            style=" stroke:none;fill-rule:nonzero;fill:rgb(21.176471%,4.705882%,22.745098%);fill-opacity:1;"
            d="M 19.101562 114.0625 C 19.101562 111.875 20.378906 110.765625 22.214844 110.765625 C 22.679688 110.765625 23.085938 110.8125 23.539062 110.914062 L 23.539062 107.320312 C 23.175781 107.214844 22.832031 107.167969 22.46875 107.167969 C 20.84375 107.167969 19.613281 108.039062 19.011719 109.296875 L 18.605469 107.320312 L 15.339844 107.320312 L 15.339844 120.929688 L 19.101562 120.929688 Z M 19.101562 114.0625 " />
        <path
            style=" stroke:none;fill-rule:nonzero;fill:rgb(21.176471%,4.705882%,22.745098%);fill-opacity:1;"
            d="M 31.117188 121.273438 C 33.402344 121.273438 35.554688 120.359375 37.027344 118.679688 L 34.742188 116.34375 C 33.78125 117.363281 32.605469 117.917969 31.074219 117.917969 C 29.386719 117.917969 28.019531 116.898438 27.660156 115.382812 L 37.644531 115.382812 C 37.75 114.875 37.75 114.421875 37.75 114.0625 C 37.75 109.445312 34.335938 106.957031 31.027344 106.957031 C 26.589844 106.957031 23.792969 110.363281 23.792969 114.167969 C 23.777344 118.382812 26.890625 121.273438 31.117188 121.273438 Z M 30.921875 110.257812 C 32.457031 110.257812 33.71875 111.214844 34.035156 112.640625 L 27.71875 112.640625 C 28.003906 111.171875 29.34375 110.257812 30.921875 110.257812 Z M 30.921875 110.257812 " />
        <path
            style=" stroke:none;fill-rule:nonzero;fill:rgb(21.176471%,4.705882%,22.745098%);fill-opacity:1;"
            d="M 85.519531 114.0625 C 85.519531 111.875 86.796875 110.765625 88.632812 110.765625 C 89.097656 110.765625 89.503906 110.8125 89.953125 110.914062 L 89.953125 107.320312 C 89.59375 107.214844 89.246094 107.167969 88.886719 107.167969 C 87.261719 107.167969 86.03125 108.039062 85.429688 109.296875 L 85.023438 107.320312 L 81.757812 107.320312 L 81.757812 120.929688 L 85.53125 120.929688 L 85.53125 114.0625 Z M 85.519531 114.0625 " />
        <path
            style=" stroke:none;fill-rule:nonzero;fill:rgb(21.176471%,4.705882%,22.745098%);fill-opacity:1;"
            d="M 73.652344 121.273438 C 75.9375 121.273438 78.089844 120.359375 79.5625 118.679688 L 77.277344 116.34375 C 76.3125 117.363281 75.140625 117.917969 73.605469 117.917969 C 71.921875 117.917969 70.554688 116.898438 70.191406 115.382812 L 80.164062 115.382812 C 80.269531 114.875 80.269531 114.421875 80.269531 114.0625 C 80.269531 109.445312 76.855469 106.957031 73.546875 106.957031 C 69.109375 106.957031 66.3125 110.363281 66.3125 114.167969 C 66.3125 118.382812 69.425781 121.273438 73.652344 121.273438 Z M 73.441406 110.257812 C 74.976562 110.257812 76.238281 111.214844 76.554688 112.640625 L 70.238281 112.640625 C 70.539062 111.171875 71.863281 110.257812 73.441406 110.257812 Z M 73.441406 110.257812 " />
        <path
            style=" stroke:none;fill-rule:nonzero;fill:rgb(21.176471%,4.705882%,22.745098%);fill-opacity:1;"
            d="M 63.003906 105.476562 C 64.328125 105.476562 65.347656 104.457031 65.347656 103.195312 C 65.347656 101.878906 64.328125 100.859375 63.003906 100.859375 C 61.679688 100.859375 60.65625 101.878906 60.65625 103.195312 C 60.65625 104.46875 61.679688 105.476562 63.003906 105.476562 Z M 63.003906 105.476562 " />
        <path
            style=" stroke:none;fill-rule:nonzero;fill:rgb(21.176471%,4.705882%,22.745098%);fill-opacity:1;"
            d="M 61.0625 107.304688 L 64.839844 107.304688 L 64.839844 120.914062 L 61.0625 120.914062 Z M 61.0625 107.304688 " />
        <path
            style=" stroke:none;fill-rule:nonzero;fill:rgb(21.176471%,4.705882%,22.745098%);fill-opacity:1;"
            d="M 70.945312 136.652344 C 70.945312 138.84375 69.726562 139.996094 68.042969 139.996094 C 66.207031 139.996094 65.140625 138.976562 65.140625 136.652344 L 65.140625 129.652344 L 61.363281 129.652344 L 61.363281 136.910156 C 61.363281 141.988281 65.035156 143.609375 68.042969 143.609375 C 70.988281 143.609375 74.71875 141.988281 74.71875 136.910156 L 74.71875 129.652344 L 70.945312 129.652344 Z M 70.945312 136.652344 " />
        <path
            style=" stroke:none;fill-rule:nonzero;fill:rgb(21.176471%,4.705882%,22.745098%);fill-opacity:1;"
            d="M 55.828125 131.378906 C 55.015625 130.207031 53.589844 129.445312 52.007812 129.445312 C 48.144531 129.445312 44.984375 132.488281 44.984375 136.445312 C 44.984375 140.445312 48.039062 143.59375 51.917969 143.59375 C 53.390625 143.59375 54.714844 143.144531 55.84375 141.976562 L 55.84375 142.933594 C 55.84375 144.957031 54.625 146.335938 51.828125 146.335938 C 50.039062 146.335938 48.667969 145.46875 47.648438 144.507812 L 45.554688 147.402344 C 47.179688 148.976562 49.226562 149.933594 52.070312 149.933594 C 54.160156 149.933594 55.890625 149.230469 57.167969 148.257812 C 58.851562 146.9375 59.558594 145.152344 59.558594 142.621094 L 59.558594 129.625 L 56.25 129.625 Z M 52.460938 139.996094 C 50.472656 139.996094 48.894531 138.421875 48.894531 136.445312 C 48.894531 134.359375 50.472656 132.847656 52.460938 132.847656 C 54.445312 132.847656 56.023438 134.375 56.023438 136.445312 C 56.023438 138.421875 54.445312 139.996094 52.460938 139.996094 Z M 52.460938 139.996094 " />
        <path
            style=" stroke:none;fill-rule:nonzero;fill:rgb(21.176471%,4.705882%,22.745098%);fill-opacity:1;"
            d="M 90 136.398438 C 90 131.78125 86.585938 129.292969 83.277344 129.292969 C 78.839844 129.292969 76.042969 132.695312 76.042969 136.503906 C 76.042969 140.714844 79.15625 143.609375 83.382812 143.609375 C 85.667969 143.609375 87.820312 142.695312 89.292969 141.015625 L 87.007812 138.675781 C 86.042969 139.695312 84.871094 140.25 83.335938 140.25 C 81.652344 140.25 80.285156 139.230469 79.921875 137.71875 L 89.910156 137.71875 C 90 137.207031 90 136.742188 90 136.398438 Z M 79.96875 134.976562 C 80.269531 133.507812 81.59375 132.589844 83.171875 132.589844 C 84.707031 132.589844 85.96875 133.550781 86.285156 134.976562 Z M 79.96875 134.976562 " />
        <path
            style=" stroke:none;fill-rule:nonzero;fill:rgb(21.176471%,4.705882%,22.745098%);fill-opacity:1;"
            d="M 39.828125 131.421875 C 39.015625 130.148438 37.628906 129.445312 35.601562 129.445312 C 31.992188 129.445312 28.832031 132.636719 28.832031 136.445312 C 28.832031 140.296875 31.992188 143.59375 35.601562 143.59375 C 37.480469 143.59375 39.015625 142.726562 39.828125 141.511719 L 40.230469 143.234375 L 43.542969 143.234375 L 43.542969 129.625 L 40.230469 129.625 Z M 36.367188 139.996094 C 34.320312 139.996094 32.800781 138.421875 32.800781 136.445312 C 32.800781 134.359375 34.320312 132.847656 36.367188 132.847656 C 38.351562 132.847656 39.886719 134.375 39.886719 136.445312 C 39.886719 138.421875 38.351562 139.996094 36.367188 139.996094 Z M 36.367188 139.996094 " />
        <path
            style=" stroke:none;fill-rule:nonzero;fill:rgb(21.176471%,4.705882%,22.745098%);fill-opacity:1;"
            d="M 47.316406 112.894531 L 47.316406 120.914062 L 51.089844 120.914062 L 51.089844 112.941406 C 51.089844 111.410156 51.859375 110.496094 53.332031 110.496094 C 54.609375 110.496094 55.421875 111.410156 55.421875 112.878906 L 55.421875 120.898438 L 59.199219 120.898438 L 59.199219 112.21875 C 59.199219 109.117188 57.210938 106.945312 54.308594 106.945312 C 53.285156 106.945312 51.664062 107.09375 50.339844 108.980469 L 50.234375 109.132812 L 50.128906 108.980469 C 49.210938 107.601562 47.886719 106.945312 46.308594 106.945312 C 43.765625 106.945312 42.953125 109.070312 42.953125 109.070312 L 42.546875 107.289062 L 39.238281 107.289062 L 39.238281 120.898438 L 43.015625 120.898438 L 43.015625 112.925781 C 43.015625 111.394531 43.78125 110.480469 45.253906 110.480469 C 46.503906 110.511719 47.316406 111.425781 47.316406 112.894531 Z M 47.316406 112.894531 " />
        <path
            style=" stroke:none;fill-rule:nonzero;fill:rgb(21.176471%,4.705882%,22.745098%);fill-opacity:1;"
            d="M 20.832031 129.292969 C 16.394531 129.292969 13.597656 132.695312 13.597656 136.503906 C 13.597656 140.714844 16.710938 143.609375 20.9375 143.609375 C 23.222656 143.609375 25.371094 142.695312 26.847656 141.015625 L 24.558594 138.675781 C 23.597656 139.695312 22.425781 140.25 20.890625 140.25 C 19.207031 140.25 17.835938 139.230469 17.476562 137.71875 L 27.464844 137.71875 C 27.570312 137.207031 27.570312 136.757812 27.570312 136.398438 C 27.554688 131.78125 24.140625 129.292969 20.832031 129.292969 Z M 17.523438 134.976562 C 17.824219 133.507812 19.144531 132.589844 20.726562 132.589844 C 22.257812 132.589844 23.523438 133.550781 23.839844 134.976562 Z M 17.523438 134.976562 " />
        <path
            style=" stroke:none;fill-rule:nonzero;fill:rgb(21.176471%,4.705882%,22.745098%);fill-opacity:1;"
            d="M 4.015625 123.101562 L 0 123.101562 L 0 143.25 L 12.785156 143.25 L 12.785156 139.441406 L 4.015625 139.441406 Z M 4.015625 123.101562 " />
        <path
            style=" stroke:none;fill-rule:nonzero;fill:rgb(21.176471%,4.705882%,22.745098%);fill-opacity:1;"
            d="M 29.386719 17.125 C 35.285156 13.871094 42.097656 12.011719 49.347656 12.011719 C 53.121094 12.011719 56.792969 12.523438 60.265625 13.464844 C 60.597656 10.214844 61.320312 6.167969 62.851562 3.242188 C 59.316406 5.882812 57.210938 8.757812 56.941406 9.117188 C 56.851562 8.382812 56.535156 3.484375 56.296875 0.0507812 C 54.867188 1.550781 49.363281 7.515625 48.414062 8.488281 C 47.617188 7.304688 43.015625 0.0664062 43.015625 0.0664062 C 43.015625 0.0664062 40.472656 7.261719 39.734375 9.464844 C 37.929688 8.265625 32.441406 4.5625 30.082031 2.972656 C 30.546875 6.015625 31.34375 10.917969 31.554688 11.9375 C 31.074219 11.59375 28.472656 9.3125 24.425781 7.5 C 26.636719 10.078125 28.320312 13.976562 29.386719 17.125 Z M 29.386719 17.125 " />
        <path
            style=" stroke:none;fill-rule:nonzero;fill:rgb(21.176471%,4.705882%,22.745098%);fill-opacity:1;"
            d="M 74.011719 34.015625 L 73.710938 36.324219 L 70.660156 33.117188 C 70.660156 33.117188 71.230469 32.847656 71.785156 32.1875 C 71.816406 31.917969 71.589844 30.34375 70.328125 29.3125 C 69.09375 29.609375 68.191406 30.300781 67.710938 30.960938 C 66.027344 29.492188 64.144531 28.921875 64.144531 28.921875 C 64.476562 29.175781 66.460938 31.859375 66.6875 32.625 C 68.507812 34.09375 70.855469 35.800781 72.476562 37.855469 C 71.199219 36.402344 64.929688 36.054688 62.054688 37.585938 C 62.054688 37.585938 59.226562 34.347656 56.625 32.097656 C 56.085938 30.121094 57.875 28.5 57.875 28.5 C 57.875 28.5 56.070312 28.457031 54.324219 30.089844 C 51.722656 28.214844 48.429688 27.316406 48.429688 27.316406 C 44.773438 27.871094 42.277344 30.359375 42.277344 30.359375 C 43.164062 30.898438 44.308594 31.558594 45.269531 31.917969 C 47.300781 32.683594 49.152344 32.445312 50.398438 32.445312 C 51.390625 32.445312 52.804688 32.726562 52.804688 32.726562 C 52.804688 32.726562 55.273438 34.511719 58.820312 38.5 C 53.40625 36.386719 47.660156 38.800781 43.660156 36.851562 C 39 34.570312 39.316406 30.960938 39.316406 30.960938 C 39.316406 30.960938 36.140625 30.523438 36.109375 30.464844 C 36.109375 30.464844 38.441406 27.480469 42.023438 26.402344 L 40.21875 24.902344 C 42.292969 23.148438 46.113281 20.929688 52.054688 20.089844 C 52.054688 20.089844 54.714844 21.050781 60.117188 24.84375 C 61.046875 23.613281 61.273438 21.066406 61.273438 21.066406 C 63.996094 22.027344 69.679688 25.996094 71.953125 28.472656 C 70.765625 25.683594 69.847656 23.914062 69.558594 20.976562 C 68.160156 19.640625 64.824219 16.867188 57.828125 15.21875 C 58.910156 17.5 58.820312 19.386719 58.820312 19.386719 C 57.542969 17.785156 54.777344 15.21875 52.910156 14.484375 C 51.738281 14.378906 50.535156 14.335938 49.332031 14.335938 C 42.878906 14.335938 36.773438 15.847656 31.402344 18.53125 C 34.246094 18.699219 36.140625 21.007812 36.804688 22.863281 C 34.621094 21.214844 31.207031 20.480469 29.191406 22.609375 C 27.164062 24.722656 27.402344 28.816406 29.34375 32.128906 C 24.769531 29.878906 24.800781 23.960938 26.351562 21.574219 C 21.144531 25.234375 16.90625 30.105469 14.0625 35.757812 L 18.242188 36.414062 C 13.492188 41.691406 10.210938 51.105469 10.210938 55.542969 L 16.921875 53.519531 C 15.71875 57.402344 15.355469 70.59375 19.386719 77.171875 C 19.386719 77.171875 24.664062 73.652344 30.621094 64.671875 C 33.164062 72.722656 31.976562 79.4375 30.652344 86.078125 C 41.421875 92 53.949219 88.671875 61.257812 83.542969 L 62.566406 88.566406 C 71.167969 83.066406 75.863281 75.164062 76.765625 65.855469 L 79.953125 69.289062 C 84.886719 55.09375 81.050781 43.789062 74.011719 34.015625 Z M 55.183594 54.027344 C 52.957031 49.980469 50.925781 46.234375 50.925781 46.234375 C 50.925781 46.234375 56.941406 41.378906 61.90625 40.644531 C 64.371094 42.5 66.6875 43.234375 66.6875 43.234375 L 66.6875 48.289062 C 64.851562 49.773438 59.09375 54.570312 55.183594 54.027344 Z M 71.695312 57.433594 C 70.855469 61.628906 68.449219 64.296875 66.703125 65.285156 C 66.851562 62.242188 66.042969 59.664062 66.042969 59.664062 C 64.792969 61.074219 61.710938 62.421875 59.964844 62.796875 C 59.078125 61.132812 57.316406 57.957031 57.316406 57.957031 C 60.507812 57.851562 65.742188 53.488281 65.742188 53.488281 L 69.621094 53.398438 C 71.304688 55.347656 71.695312 57.433594 71.695312 57.433594 Z M 73.515625 53.472656 C 72.476562 51.179688 71.109375 49.921875 69.710938 48.40625 L 69.679688 43.339844 C 69.679688 43.339844 71.335938 42.457031 73.289062 40.851562 C 75.09375 45.003906 75.472656 50.042969 73.515625 53.472656 Z M 73.515625 53.472656 " />
    </g>
</svg>